<svg width="320" height="320" viewBox="0 0 320 320" fill="none" xmlns="http://www.w3.org/2000/svg">
<path d="M320 318.677L171.052 318.677C148.253 318.677 126.095 314.465 105.19 306.157C85.007 298.136 66.8596 286.665 51.2499 272.065C35.6402 257.462 23.3756 240.487 14.8022 221.608C5.92038 202.054 1.41907 181.327 1.41907 160C1.41907 138.673 5.92307 117.948 14.8022 98.3922C23.3756 79.5135 35.6402 62.5383 51.2499 47.9354C66.8596 33.3325 85.0096 21.8641 105.19 13.843C126.095 5.53528 148.256 1.32346 171.052 1.32346L320 1.32346V0L171.052 0C76.9728 0 0 71.9989 0 160C0 248.001 76.9728 320 171.052 320L320 320V318.677Z" fill="#7E7EFF"/>
<path d="M320 312.696L172.281 312.696C150.343 312.696 129.017 308.643 108.9 300.648C89.4787 292.93 72.0127 281.893 56.9905 267.839C41.9683 253.788 30.1678 237.452 21.9164 219.283C13.3698 200.466 9.03748 180.52 9.03748 159.998C9.03748 139.476 13.3698 119.53 21.9164 100.713C30.1678 82.5466 41.9683 66.2083 56.9905 52.157C72.0127 38.1057 89.4787 27.0659 108.9 19.3501C129.017 11.355 150.343 7.30176 172.281 7.30176L320 7.30176V5.97833L172.281 5.97833C81.7182 5.97833 7.62109 75.2878 7.62109 159.998C7.62109 244.708 81.7182 314.018 172.281 314.018L320 314.018V312.694V312.696Z" fill="#7E7EFF"/>
<path d="M320 306.718L173.509 306.718C152.43 306.718 131.941 302.824 112.61 295.143C93.9479 287.728 77.1686 277.122 62.7339 263.62C48.2991 250.118 36.96 234.421 29.0331 216.965C20.8218 198.884 16.6585 179.719 16.6585 160C16.6585 140.281 20.8218 121.116 29.0331 103.037C36.96 85.5814 48.2991 69.8847 62.7339 56.3827C77.1686 42.8806 93.9479 32.2741 112.61 24.859C131.941 17.1787 152.43 13.2841 173.509 13.2841L320 13.2841V11.9607L173.509 11.9607C86.4636 11.9607 15.2422 78.5783 15.2422 160.002C15.2422 241.424 86.4609 308.044 173.509 308.044L320 308.044V306.72V306.718Z" fill="#7E7EFF"/>
<path d="M320 300.738L174.741 300.738C154.52 300.738 134.865 297.002 116.323 289.634C98.4223 282.52 82.3244 272.347 68.4799 259.396C54.6353 246.446 43.7576 231.388 36.1526 214.643C28.2767 197.298 24.2824 178.914 24.2824 160C24.2824 141.086 28.2767 122.702 36.1526 105.358C43.7576 88.6122 54.6353 73.5571 68.4799 60.6043C82.3244 47.6539 98.4223 37.4783 116.323 30.3662C134.865 22.9985 154.52 19.2625 174.741 19.2625L320 19.2625V17.9391L174.741 17.9391C91.209 17.9391 22.866 81.8671 22.866 160C22.866 238.133 91.209 302.062 174.741 302.062L320 302.062V300.738Z" fill="#7E7EFF"/>
<path d="M320 294.757L175.969 294.757C156.607 294.757 137.789 291.18 120.036 284.125C102.894 277.314 87.4829 267.571 74.2231 255.17C60.966 242.769 50.5498 228.351 43.2693 212.318C35.726 195.712 31.9034 178.107 31.9034 159.998C31.9034 141.888 35.7287 124.284 43.2693 107.678C50.5524 91.6447 60.966 77.2265 74.2231 64.8254C87.4803 52.4242 102.894 42.6819 120.036 35.8705C137.789 28.8153 156.609 25.2379 175.969 25.2379L320 25.2379V23.9145L175.969 23.9145C95.9544 23.9145 30.4871 85.1506 30.4871 159.995C30.4871 234.84 95.9544 296.076 175.969 296.076L320 296.076V294.753V294.757Z" fill="#7E7EFF"/>
<path d="M320 288.78L177.198 288.78C158.696 288.78 140.713 285.361 123.745 278.618C107.366 272.11 92.6361 262.801 79.9665 250.949C67.2968 239.097 57.3446 225.32 50.3861 209.998C43.1781 194.128 39.5245 177.307 39.5245 159.998C39.5245 142.689 43.1781 125.87 50.3861 110C57.3446 94.6776 67.2968 80.901 79.9665 69.0491C92.6361 57.1973 107.366 47.8882 123.745 41.3798C140.713 34.6371 158.696 31.2184 177.198 31.2184L320 31.2184V29.8949L177.198 29.8949C100.7 29.8949 38.1082 88.4415 38.1082 159.998C38.1082 231.554 100.697 290.101 177.198 290.101L320 290.101V288.777V288.78Z" fill="#7E7EFF"/>
<path d="M320 282.799L178.426 282.799C160.783 282.799 143.634 279.539 127.455 273.111C111.835 266.903 97.7919 258.027 85.7098 246.727C73.6276 235.427 64.1395 222.289 57.5029 207.679C50.6302 192.546 47.1456 176.506 47.1456 160.002C47.1456 143.498 50.6302 127.458 57.5029 112.325C64.1395 97.7148 73.6276 84.5774 85.7098 73.2772C97.7919 61.9769 111.838 53.0987 127.455 46.8934C143.634 40.4655 160.783 37.2055 178.426 37.2055L320 37.2055V35.882L178.426 35.882C105.443 35.882 45.7292 91.7368 45.7292 160.005C45.7292 228.272 105.443 284.127 178.426 284.127L320 284.127V282.804V282.799Z" fill="#7E7EFF"/>
<path d="M320 276.821L179.655 276.821C162.87 276.821 146.558 273.72 131.168 267.604C116.309 261.7 102.948 253.255 91.4558 242.504C79.9638 231.753 70.9344 219.255 64.6223 205.357C58.085 190.96 54.7694 175.702 54.7694 160.002C54.7694 144.303 58.085 129.042 64.6223 114.648C70.9344 100.748 79.9638 88.2497 91.4558 77.5011C102.948 66.7502 116.309 58.3052 131.168 52.4006C146.558 46.2853 162.873 43.1838 179.655 43.1838L320 43.1838V41.8604L179.655 41.8604C110.188 41.8604 53.3503 95.0256 53.3503 160.002C53.3503 224.982 110.188 278.145 179.655 278.145L320 278.145V276.821Z" fill="#7E7EFF"/>
<path d="M320 270.841L180.886 270.841C164.96 270.841 149.482 267.898 134.881 262.095C120.781 256.493 108.104 248.479 97.1991 238.28C86.2946 228.081 77.7293 216.222 71.7392 203.035C65.5345 189.376 62.3905 174.896 62.3905 160C62.3905 145.104 65.5371 130.626 71.7392 116.965C77.7293 103.778 86.2946 91.9193 97.1991 81.72C108.104 71.5207 120.781 63.5066 134.881 57.905C149.482 52.1022 164.963 49.1594 180.886 49.1594L320 49.1594V47.8359L180.886 47.8359C114.936 47.8359 60.9741 98.3093 60.9741 160C60.9741 221.691 114.933 272.164 180.886 272.164L320 272.164V270.841Z" fill="#7E7EFF"/>
<path d="M320 264.86L182.115 264.86C167.05 264.86 152.406 262.076 138.591 256.588C125.253 251.287 113.259 243.706 102.942 234.056C92.6254 224.406 84.5214 213.186 78.8559 200.712C72.9865 187.79 70.0116 174.091 70.0116 160C70.0116 145.908 72.9865 132.21 78.8559 119.288C84.5214 106.811 92.6254 95.5936 102.942 85.9436C113.259 76.2935 125.253 68.7127 138.591 63.4118C152.406 57.9215 167.05 55.1397 182.115 55.1397L320 55.1397V53.8162L182.115 53.8162C119.679 53.8162 68.5952 101.6 68.5952 160C68.5952 218.402 119.679 266.184 182.115 266.184L320 266.184V264.86Z" fill="#7E7EFF"/>
<path d="M320 258.882H183.343C155.225 258.882 128.711 248.566 108.686 229.835C88.6606 211.103 77.6327 186.303 77.6327 160.002C77.6327 133.701 88.6606 108.899 108.686 90.1693C128.711 71.4374 155.225 61.1221 183.343 61.1221L320 61.1221V59.7986L183.343 59.7986C124.424 59.7986 76.2163 104.891 76.2163 160.004C76.2163 215.116 124.424 260.21 183.343 260.21L320 260.21V258.887V258.882Z" fill="#7E7EFF"/>
<path d="M320 252.902L184.572 252.902C158.154 252.902 133.244 243.209 114.429 225.612C95.6137 208.014 85.2537 184.713 85.2537 160C85.2537 135.288 95.6164 111.989 114.429 94.3889C133.244 76.7911 158.154 67.0984 184.572 67.0984L320 67.0984V65.775L184.572 65.775C129.17 65.775 83.8374 108.177 83.8374 160C83.8374 211.823 129.167 254.226 184.572 254.226L320 254.226V252.902Z" fill="#7E7EFF"/>
<path d="M320 246.922L185.801 246.922C161.084 246.922 137.775 237.854 120.172 221.388C102.57 204.922 92.8748 183.121 92.8748 160C92.8748 136.879 102.57 115.079 120.172 98.6125C137.775 82.1463 161.084 73.0787 185.801 73.0787L320 73.0787V71.7552L185.801 71.7552C133.912 71.7552 91.4585 111.466 91.4585 160C91.4585 208.535 133.912 248.245 185.801 248.245L320 248.245V246.922Z" fill="#7E7EFF"/>
<path d="M320 240.943L187.032 240.943C164.016 240.943 142.311 232.498 125.918 217.166C109.525 201.832 100.499 181.53 100.499 160.002C100.499 138.474 109.525 118.17 125.918 102.838C142.311 87.5037 164.016 79.0611 187.032 79.0611L320 79.0611V77.7377L187.032 77.7377C138.66 77.7377 99.0822 114.756 99.0822 160.005C99.0822 205.25 138.658 242.271 187.032 242.271L320 242.271V240.948V240.943Z" fill="#7E7EFF"/>
<path d="M320 234.963L188.261 234.963C166.945 234.963 146.845 227.143 131.662 212.942C116.481 198.742 108.12 179.939 108.12 160C108.12 140.06 116.481 121.26 131.662 107.057C146.842 92.8565 166.945 85.0365 188.261 85.0365L320 85.0365V83.7131L188.261 83.7131C143.406 83.7131 106.703 118.042 106.703 160C106.703 201.957 143.403 236.286 188.261 236.286L320 236.286V234.963Z" fill="#7E7EFF"/>
<path d="M320 228.985L189.489 228.985C169.874 228.985 151.376 221.788 137.405 208.719C123.434 195.65 115.741 178.348 115.741 160C115.741 141.652 123.434 124.35 137.405 111.281C151.376 98.2121 169.872 91.0148 189.489 91.0148L320 91.0148V89.6914L189.489 89.6914C148.149 89.6914 114.324 121.329 114.324 159.998C114.324 198.666 148.149 230.304 189.489 230.304L320 230.304V228.98V228.985Z" fill="#7E7EFF"/>
<path d="M320 223.005L190.718 223.005C172.801 223.005 155.909 216.432 143.148 204.495C130.387 192.561 123.362 176.757 123.362 160C123.362 143.243 130.39 127.439 143.148 115.505C155.909 103.57 172.801 96.9953 190.718 96.9953L320 96.9953V95.6718L190.718 95.6718C152.894 95.6718 121.948 124.62 121.948 160C121.948 195.38 152.894 224.328 190.718 224.328L320 224.328V223.005Z" fill="#7E7EFF"/>
<path d="M320 217.024L191.946 217.024C175.73 217.024 160.44 211.075 148.892 200.272C137.343 189.469 130.983 175.166 130.983 160C130.983 144.834 137.343 130.531 148.892 119.728C160.44 108.925 175.73 102.976 191.946 102.976L320 102.976V101.652L191.946 101.652C157.639 101.652 129.569 127.908 129.569 160C129.569 192.092 157.639 218.348 191.946 218.348L320 218.348V217.024Z" fill="#7E7EFF"/>
<path d="M320 211.047L193.178 211.047C178.662 211.047 164.976 205.722 154.638 196.051C144.299 186.379 138.607 173.578 138.607 160C138.607 146.422 144.299 133.621 154.638 123.95C164.976 114.281 178.662 108.954 193.178 108.954L320 108.954V107.63L193.178 107.63C162.385 107.63 137.193 131.197 137.193 159.998C137.193 188.801 162.387 212.365 193.178 212.365L320 212.365V211.042V211.047Z" fill="#7E7EFF"/>
<path d="M320 205.066L194.406 205.066C181.592 205.066 169.51 200.364 160.381 191.827C151.255 183.29 146.228 171.987 146.228 160C146.228 148.013 151.255 136.711 160.381 128.174C169.507 119.636 181.592 114.934 194.406 114.934L320 114.934V113.611L194.406 113.611C167.13 113.611 144.814 134.485 144.814 160C144.814 185.515 167.13 206.39 194.406 206.39L320 206.39V205.066Z" fill="#7E7EFF"/>
<path d="M320 199.086L195.635 199.086C172.595 199.086 153.849 181.552 153.849 160C153.849 138.449 172.595 120.915 195.635 120.915L320 120.915V119.591L195.635 119.591C171.876 119.591 152.435 137.776 152.435 160C152.435 182.227 171.876 200.409 195.635 200.409L320 200.409V199.086Z" fill="#7E7EFF"/>
<path d="M320 193.107L196.863 193.107C177.348 193.107 161.47 178.256 161.47 160C161.47 141.744 177.348 126.892 196.863 126.892L320 126.892V125.569L196.863 125.569C176.618 125.569 160.056 141.062 160.056 160C160.056 178.935 176.621 194.431 196.863 194.431L320 194.431V193.107Z" fill="#7E7EFF"/>
<path d="M320 187.128L198.092 187.128C182.101 187.128 169.091 174.959 169.091 160.001C169.091 145.043 182.101 132.873 198.092 132.873L320 132.873V131.55L198.092 131.55C181.364 131.55 167.677 144.354 167.677 160.001C167.677 175.648 181.364 188.451 198.092 188.451L320 188.451V187.128Z" fill="#7E7EFF"/>
<path d="M320 181.146L199.323 181.146C186.858 181.146 176.715 171.66 176.715 160C176.715 148.339 186.858 138.853 199.323 138.853L320 138.853V137.529L199.323 137.529C186.112 137.529 175.301 147.641 175.301 160C175.301 172.358 186.112 182.47 199.323 182.47L320 182.47V181.146Z" fill="#7E7EFF"/>
<path d="M320 175.169L200.552 175.169C191.611 175.169 184.336 168.364 184.336 160C184.336 151.636 191.611 144.831 200.552 144.831L320 144.831V143.508L200.552 143.508C190.855 143.508 182.922 150.93 182.922 160C182.922 169.07 190.857 176.492 200.552 176.492L320 176.492V175.169Z" fill="#7E7EFF"/>
<path d="M320 169.188L201.781 169.188C196.364 169.188 191.957 165.066 191.957 160C191.957 154.933 196.364 150.812 201.781 150.812L320 150.812V149.488L201.781 149.488C195.6 149.488 190.543 154.218 190.543 160C190.543 165.781 195.6 170.512 201.781 170.512L320 170.512V169.188Z" fill="#7E7EFF"/>
<path d="M320 163.211L203.009 163.211C201.118 163.211 199.578 161.771 199.578 160.003C199.578 158.234 201.118 156.795 203.009 156.795L320 156.795V155.471L203.009 155.471C200.345 155.471 198.164 157.51 198.164 160.003C198.164 162.496 200.345 164.534 203.009 164.534L320 164.534V163.211Z" fill="#7E7EFF"/>
</svg>
